<?xml version="1.0" encoding="UTF-8"?>
<svg version="1.1" xmlns="http://www.w3.org/2000/svg" width="362" height="333">
<path d="M0 0 C119.46 0 238.92 0 362 0 C362 109.89 362 219.78 362 333 C242.54 333 123.08 333 0 333 C0 223.11 0 113.22 0 0 Z " fill="#FAFBFC" transform="translate(0,0)"/>
<path d="M0 0 C119.46 0 238.92 0 362 0 C362 109.89 362 219.78 362 333 C352.76 333 343.52 333 334 333 C332.68 331.68 331.36 330.36 330 329 C330 328.01 330 327.02 330 326 C329.34 326 328.68 326 328 326 C327.99940291 325.39635156 327.99880582 324.79270312 327.99819064 324.1707623 C327.96231652 288.41382867 327.90570816 252.65698663 327.82207905 216.90013202 C327.81206129 212.60920294 327.80221721 208.31827348 327.79248047 204.02734375 C327.7905391 203.17307717 327.78859772 202.31881058 327.78659752 201.43865713 C327.75555488 187.59653014 327.73859056 173.75441974 327.72680578 159.9122645 C327.71440593 145.71472195 327.68693097 131.51726664 327.64538693 117.31977916 C327.62021803 108.55527338 327.60688518 99.79091222 327.60857043 91.02636978 C327.60860012 85.0206599 327.59402056 79.01509761 327.56783572 73.00944522 C327.55315089 69.54160113 327.54501969 66.07405973 327.55419731 62.60618973 C327.56078687 58.85002714 327.54303633 55.09475675 327.51898193 51.33868408 C327.52674235 50.23752424 327.53450277 49.13636439 327.54249835 48.00183606 C327.53105076 46.99762073 327.51960317 45.9934054 327.50780869 44.95875931 C327.5062898 44.09147807 327.50477092 43.22419684 327.50320601 42.33063436 C326.81393351 39.13821987 325.58070242 37.95492642 323 36 C320.67802839 35.40724344 320.67802839 35.40724344 318.13050079 35.49663544 C316.65400346 35.48098895 316.65400346 35.48098895 315.1476779 35.46502638 C314.06870127 35.47394927 312.98972465 35.48287215 311.87805176 35.49206543 C310.72997811 35.48582547 309.58190446 35.4795855 308.3990407 35.47315645 C305.21175075 35.45994795 302.02506853 35.46472044 298.83779359 35.47710133 C295.40077594 35.48613926 291.96384142 35.47218838 288.52684021 35.46118164 C281.79356557 35.44337828 275.06046909 35.44724441 268.32718742 35.4588322 C262.85581045 35.46785914 257.38448347 35.46909374 251.9131012 35.46473694 C251.13492154 35.46412401 250.35674188 35.46351107 249.55498102 35.46287957 C247.97421307 35.46160069 246.39344513 35.46030384 244.8126772 35.4589892 C229.98351202 35.44757809 215.15444568 35.46070542 200.3252967 35.48219067 C187.59620949 35.50006215 174.86726817 35.49695819 162.13818359 35.47851562 C147.36274229 35.45711827 132.58738767 35.44867677 117.81193304 35.46096468 C116.23692164 35.4622389 114.66191023 35.46349638 113.0868988 35.46473694 C112.31192662 35.46535404 111.53695443 35.46597114 110.73849824 35.46660694 C105.27254886 35.47006326 99.80665438 35.46422546 94.3407135 35.45481873 C87.6811527 35.44360993 81.02178053 35.44661502 74.36224139 35.4679417 C70.96321518 35.47846742 67.56450367 35.48254851 64.16547966 35.46934509 C60.48398511 35.45847091 56.80338524 35.47205624 53.12194824 35.49206543 C51.5034833 35.4786811 51.5034833 35.4786811 49.8523221 35.46502638 C44.38212412 35.5177331 44.38212412 35.5177331 39.33731461 37.39188766 C37.19501309 41.56993447 37.44466661 45.60821829 37.48101807 50.23773193 C37.46976619 51.81706792 37.46976619 51.81706792 37.458287 53.42830968 C37.43793533 56.96770419 37.44612747 60.50646266 37.45410156 64.04589844 C37.44537066 66.57848243 37.43488658 69.1110609 37.42277527 71.64363098 C37.40062862 77.10189591 37.39071541 82.55996649 37.39188385 88.0182724 C37.39355213 95.91001938 37.37322829 103.80158901 37.34752855 111.69328871 C37.30643067 124.4968518 37.28313037 137.30038303 37.27099609 150.10400391 C37.25917041 162.54186059 37.23897912 174.97965727 37.20751953 187.41748047 C37.20558343 188.18408744 37.20364733 188.95069441 37.20165256 189.74053189 C37.19188808 193.58635603 37.18195895 197.43217972 37.17194796 201.27800322 C37.08910364 233.18530964 37.03513194 265.09260413 37 297 C37.66 297 38.32 297 39 297 C39.495 298.485 39.495 298.485 40 300 C130.09 300.495 130.09 300.495 222 301 C222 300.34 222 299.68 222 299 C222.91523438 298.82984375 223.83046875 298.6596875 224.7734375 298.484375 C225.96195313 298.24203125 227.15046875 297.9996875 228.375 297.75 C229.55835938 297.51796875 230.74171875 297.2859375 231.9609375 297.046875 C235.08682126 296.32766274 235.08682126 296.32766274 236.23828125 294.0078125 C236.48964844 293.34523438 236.74101562 292.68265625 237 292 C239 290.66666667 241 289.33333333 243 288 C245.35826148 285.56647486 247.47664251 283.04671498 249 280 C249.66 280 250.32 280 251 280 C256.9637505 269.1615317 257.57919052 255.14107316 255 243.25 C253.39084706 237.98721477 250.45425922 234.27697457 246.83984375 230.19140625 C245 228 245 228 244.00390625 225.83984375 C242.70587444 223.46096055 241.44935626 223.07609586 239 222 C237.65993149 221.03007138 236.32701082 220.05021828 235 219.0625 C224.91384561 212.37801627 213.31616715 212.55938111 201.62109375 212.55859375 C200.07600166 212.54679431 198.53092085 212.53342391 196.9858551 212.51856995 C192.95776192 212.48270939 188.92976902 212.46227039 184.90155029 212.44702148 C178.42426075 212.4219922 171.94719207 212.38256074 165.47010994 212.32512093 C163.21491881 212.30882017 160.95993935 212.30501938 158.70469666 212.30210876 C157.32843657 212.29233743 155.95217986 212.28207497 154.57592773 212.27124023 C153.37524155 212.26696518 152.17455536 212.26269012 150.93748474 212.25828552 C148 212 148 212 145 210 C144.61181641 206.97485352 144.61181641 206.97485352 144.6015625 203.12890625 C144.59725723 202.11170753 144.59725723 202.11170753 144.59286499 201.07395935 C144.59082278 199.63906012 144.59636373 198.20413315 144.60888672 196.76928711 C144.62491551 194.57407171 144.60905846 192.38070421 144.58984375 190.18554688 C144.59182664 188.7916626 144.59567128 187.39777948 144.6015625 186.00390625 C144.60494629 184.73361572 144.60833008 183.4633252 144.61181641 182.15454102 C145 179 145 179 146.03945923 177.32511902 C149.07636344 175.27249171 152.21745023 175.59977528 155.75683594 175.64355469 C156.94031616 175.64048813 156.94031616 175.64048813 158.14770508 175.63735962 C160.76016301 175.6343479 163.37199186 175.65284689 165.984375 175.671875 C167.80177657 175.67493337 169.61918048 175.6768089 171.43658447 175.67755127 C175.24980616 175.68215753 179.06281706 175.69659082 182.87597656 175.71875 C187.75271521 175.74695214 192.62928726 175.7579535 197.5060997 175.7624321 C201.26200004 175.76660082 205.01786705 175.77643166 208.77375031 175.78830719 C210.57100409 175.79398799 212.36826101 175.79875383 214.16551971 175.80257416 C216.68559803 175.80948976 219.20554897 175.82314884 221.72558594 175.83886719 C222.83090668 175.84054398 222.83090668 175.84054398 223.95855713 175.84225464 C228.4112246 175.87882487 232.61908477 176.28044021 237 177 C237 177.66 237 178.32 237 179 C238.7634375 179.1546875 238.7634375 179.1546875 240.5625 179.3125 C244.74442735 179.85257439 248.2394298 181.13033798 252 183 C253.53720703 183.75796875 253.53720703 183.75796875 255.10546875 184.53125 C258.07686858 186.00824124 261.04088624 187.49857775 264 189 C264 189.66 264 190.32 264 191 C265.051875 191.3403125 265.051875 191.3403125 266.125 191.6875 C271.91423453 194.33041142 275.3108869 198.15866389 278.78125 203.30859375 C280.10740051 205.24433658 280.10740051 205.24433658 282.5625 207.5625 C286.31611 211.31611 288.75963046 214.8613262 290 220 C290.474375 220.45375 290.94875 220.9075 291.4375 221.375 C294.27636102 224.32741546 294.95105464 227.87425668 295.125 231.875 C295.063125 232.926875 295.063125 232.926875 295 234 C295.66 234 296.32 234 297 234 C298.1577506 237.47325181 298.06866652 240.36067448 298 244 C298.66 244 299.32 244 300 244 C300.02886984 247.97915159 300.04675406 251.95827653 300.0625 255.9375 C300.07087891 257.07380859 300.07925781 258.21011719 300.08789062 259.38085938 C300.09272461 261.00024414 300.09272461 261.00024414 300.09765625 262.65234375 C300.10551147 264.15269165 300.10551147 264.15269165 300.11352539 265.68334961 C300 268 300 268 299 269 C298.67533241 270.51413158 298.39052676 272.03688569 298.125 273.5625 C297.22288588 278.31226752 295.8219347 282.52797846 294 287 C293.34 287 292.68 287 292 287 C291.896875 288.03125 291.79375 289.0625 291.6875 290.125 C290.49401274 296.85192817 287.78974202 300.31911576 283 305 C278.57986662 310.2180149 278.57986662 310.2180149 275 316 C274.34 316 273.68 316 273 316 C273 316.66 273 317.32 273 318 C269.43117973 321.17228469 265.46630442 322.51123186 261 324 C261 324.66 261 325.32 261 326 C259.36928753 326.6939202 257.73796112 327.38642041 256.10421509 328.07316804 C254.71720125 328.68409834 253.34731614 329.33572867 251.99956423 330.02898765 C246.07692824 332.98487672 241.17662312 333.5634837 234.61656189 333.48101807 C233.10794334 333.48615417 233.10794334 333.48615417 231.56884766 333.49139404 C228.20828361 333.49798348 224.84852756 333.47597353 221.48803711 333.45410156 C219.03392595 333.45287555 216.57981338 333.45341133 214.12570286 333.45556259 C208.89749036 333.45628101 203.66945655 333.44507383 198.44129944 333.42230225 C190.94750638 333.39010427 183.45394752 333.38188308 175.96008301 333.37841797 C157.95251668 333.35744384 139.94500462 333.30159907 121.9375 333.25 C81.698125 333.1675 41.45875 333.085 0 333 C0 223.11 0 113.22 0 0 Z " fill="#D2462B" transform="translate(0,0)"/>
<path d="M0 0 C27.225 -0.061875 27.225 -0.061875 55 -0.125 C63.55228516 -0.15231201 63.55228516 -0.15231201 72.27734375 -0.18017578 C79.31445313 -0.18920898 79.31445313 -0.18920898 82.62329102 -0.19088745 C84.90259587 -0.19393072 87.18189778 -0.20090595 89.46118164 -0.21115112 C133.41047971 -0.39858506 133.41047971 -0.39858506 144 8 C144 8.66 144 9.32 144 10 C144.556875 10.0825 145.11375 10.165 145.6875 10.25 C148.70306982 11.22802264 150.541954 13.01015324 153 15 C154.99145391 16.01691264 156.99187074 17.01642648 159 18 C163.38432224 20.57901308 165.57606916 22.57369151 168 27 C169.66247014 29.00348966 171.32932867 31.00334402 173 33 C177 38.40540541 177 38.40540541 177 43 C177.66 43 178.32 43 179 43 C179.33 44.98 179.66 46.96 180 49 C180.66 49 181.32 49 182 49 C184.55579064 54.75052895 184.86377561 60.82400438 184 67 C181.6875 70.25 181.6875 70.25 179 72 C178.01 72 177.02 72 176 72 C176 72.66 176 73.32 176 74 C167.75 74 159.5 74 151 74 C151 73.34 151 72.68 151 72 C149.84951172 71.90332031 149.84951172 71.90332031 148.67578125 71.8046875 C146 71 146 71 144.41796875 68.8203125 C144.01191406 67.93085938 143.60585937 67.04140625 143.1875 66.125 C142.76855469 65.24070312 142.34960938 64.35640625 141.91796875 63.4453125 C141 61 141 61 141 58 C140.34 58 139.68 58 139 58 C138.38125 57.05125 137.7625 56.1025 137.125 55.125 C135.00057062 52.00083914 134.24150834 51.46390699 131 50 C128 46.57142857 128 46.57142857 128 44 C127.360625 43.7525 126.72125 43.505 126.0625 43.25 C122.00011649 41.59188428 118.00275094 39.7964416 114 38 C114 37.34 114 36.68 114 36 C87.6 36 61.2 36 34 36 C33.67 75.93 33.34 115.86 33 157 C22.11 157 11.22 157 0 157 C0 105.19 0 53.38 0 0 Z " fill="#026F83" transform="translate(77,70)"/>
<path d="M0 0 C1.98 0 3.96 0 6 0 C5.67 0.99 5.34 1.98 5 3 C4.91294642 4.83924783 4.88628525 6.68157966 4.89256954 8.52287579 C4.89406189 9.67836947 4.89555424 10.83386316 4.89709181 12.0243718 C4.9038956 13.29964622 4.91069939 14.57492063 4.91770935 15.88883972 C4.92140218 17.25261191 4.92465169 18.61638536 4.92749459 19.98015958 C4.93661317 23.7359255 4.95204529 27.4916434 4.96847737 31.24738348 C4.98508851 35.29439229 4.99588853 39.34141701 5.00738525 43.38844299 C5.02811149 50.40292418 5.05254025 57.41738469 5.07946587 64.43184471 C5.11839073 74.57364431 5.15175947 84.71545617 5.18376113 94.8572797 C5.23582991 111.31071078 5.29240793 127.76412316 5.35180664 144.2175293 C5.40950597 160.20287345 5.46509096 176.18822264 5.51782227 192.17358398 C5.52107198 193.15850435 5.5243217 194.14342472 5.5276699 195.15819117 C5.5439593 200.09912266 5.56020702 205.0400543 5.57643402 209.980986 C5.71116097 250.98734709 5.85319963 291.99368047 6 333 C4.02 333 2.04 333 0 333 C0 223.11 0 113.22 0 0 Z " fill="#DA6A54" transform="translate(0,0)"/>
<path d="M0 0 C1.98 0 3.96 0 6 0 C5.67 0.66 5.34 1.32 5 2 C4.34 2 3.68 2 3 2 C2.67 111.23 2.34 220.46 2 333 C1.34 333 0.68 333 0 333 C0 223.11 0 113.22 0 0 Z " fill="#F9F6F4" transform="translate(0,0)"/>
<path d="M0 0 C0.99 0 1.98 0 3 0 C3 109.89 3 219.78 3 333 C1.35 333 -0.3 333 -2 333 C-1.01 331.02 -1.01 331.02 0 329 C0.66 329 1.32 329 2 329 C2 220.76 2 112.52 2 1 C1.34 0.67 0.68 0.34 0 0 Z " fill="#E2917E" transform="translate(359,0)"/>
<path d="M0 0 C15.08218123 -0.0468285 30.1643568 -0.08204184 45.24659538 -0.10362434 C52.25035922 -0.11391415 59.25407775 -0.1279303 66.2578125 -0.15087891 C73.0205236 -0.1730271 79.78318767 -0.18457905 86.54593277 -0.18975449 C89.12222152 -0.19344139 91.69850779 -0.20064096 94.27477646 -0.21146011 C97.89141083 -0.22604022 101.50785255 -0.22797519 105.12451172 -0.22705078 C106.18259537 -0.23424133 107.24067902 -0.24143188 108.33082581 -0.24884033 C123.69019549 -0.20653634 123.69019549 -0.20653634 130 4 C128.00045254 4.04254356 125.99958364 4.04080783 124 4 C123.505 3.505 123.505 3.505 123 3 C116.86405678 1.80310289 110.79055332 1.86532184 104.55688477 1.88647461 C103.42444839 1.88632858 102.29201202 1.88618256 101.1252594 1.8860321 C97.39728859 1.88672651 93.66936829 1.89449684 89.94140625 1.90234375 C87.35066251 1.9042096 84.75991841 1.90563272 82.16917419 1.90663147 C76.05660186 1.91005423 69.94405024 1.91792875 63.83148569 1.92798096 C56.86894322 1.93918099 49.90639987 1.94466233 42.94385064 1.94967639 C28.62922411 1.96011248 14.3146127 1.97768761 0 2 C0 1.34 0 0.68 0 0 Z " fill="#DBE4E7" transform="translate(75,68)"/>
<path d="M0 0 C0.309375 0.639375 0.61875 1.27875 0.9375 1.9375 C1.8345163 3.93610821 1.8345163 3.93610821 3 5 C3.10068807 7.59419854 3.1387005 10.15603802 3.125 12.75 C3.12886719 13.46671875 3.13273437 14.1834375 3.13671875 14.921875 C3.12969993 18.740112 2.92035258 22.28937214 2 26 C1.34 26 0.68 26 0 26 C-0.33 26.99 -0.66 27.98 -1 29 C-0.835 27.741875 -0.67 26.48375 -0.5 25.1875 C0.35915069 16.82590662 0.07756426 8.39417649 0 0 Z " fill="#D8806D" transform="translate(256,244)"/>
<path d="M0 0 C0.33 0 0.66 0 1 0 C1 4.29 1 8.58 1 13 C-0.65 13 -2.3 13 -4 13 C-3.34 11.68 -2.68 10.36 -2 9 C-1.34 9 -0.68 9 0 9 C0 6.03 0 3.06 0 0 Z " fill="#EFD6CE" transform="translate(361,320)"/>
<path d="M0 0 C0.33 0.66 0.66 1.32 1 2 C-0.125 3.9375 -0.125 3.9375 -2 6 C-5.1875 6.75 -5.1875 6.75 -8 7 C-5.4837822 4.39391727 -2.94865641 2.10618315 0 0 Z " fill="#DA836B" transform="translate(243,288)"/>
<path d="M0 0 C9.41002278 -0.3690205 9.41002278 -0.3690205 14 2 C14 2.33 14 2.66 14 3 C12.00045254 3.04254356 9.99958364 3.04080783 8 3 C7.67 2.67 7.34 2.34 7 2 C4.67182036 1.63239269 2.3381615 1.29758419 0 1 C0 0.67 0 0.34 0 0 Z " fill="#C7DADF" transform="translate(191,69)"/>
<path d="M0 0 C0.33 0.66 0.66 1.32 1 2 C0.34 2 -0.32 2 -1 2 C-1 2.66 -1 3.32 -1 4 C-3 5.625 -3 5.625 -5 7 C-5.66 6.67 -6.32 6.34 -7 6 C-4.53846154 1.2 -4.53846154 1.2 -1.8125 0.1875 C-0.9153125 0.0946875 -0.9153125 0.0946875 0 0 Z " fill="#DE917D" transform="translate(274,314)"/>
</svg>
